<?xml version="1.0" encoding="UTF-8" standalone="no"?>
<!-- Created with Inkscape (http://www.inkscape.org/) -->

<svg
   width="210mm"
   height="297mm"
   viewBox="0 0 210 297"
   version="1.1"
   id="svg185"
   xml:space="preserve"
   inkscape:version="1.2.2 (732a01da63, 2022-12-09)"
   sodipodi:docname="Alien.svg"
   xmlns:inkscape="http://www.inkscape.org/namespaces/inkscape"
   xmlns:sodipodi="http://sodipodi.sourceforge.net/DTD/sodipodi-0.dtd"
   xmlns="http://www.w3.org/2000/svg"
   xmlns:svg="http://www.w3.org/2000/svg"><sodipodi:namedview
     id="namedview187"
     pagecolor="#ffffff"
     bordercolor="#666666"
     borderopacity="1.0"
     inkscape:showpageshadow="2"
     inkscape:pageopacity="0.0"
     inkscape:pagecheckerboard="0"
     inkscape:deskcolor="#d1d1d1"
     inkscape:document-units="mm"
     showgrid="false"
     inkscape:zoom="1.1893044"
     inkscape:cx="257.29325"
     inkscape:cy="190.86787"
     inkscape:window-width="1920"
     inkscape:window-height="974"
     inkscape:window-x="-11"
     inkscape:window-y="-11"
     inkscape:window-maximized="1"
     inkscape:current-layer="layer1" /><defs
     id="defs182" /><g
     inkscape:label="Ebene 1"
     inkscape:groupmode="layer"
     id="layer1"><path
       style="fill:#000000;stroke:#000000;stroke-width:0.176389;stroke-opacity:1;fill-opacity:1"
       d="m 119.59012,62.388501 v -2.595109 l -0.48507,-0.402285 c -0.41946,-0.146897 -0.31122,-0.658815 0.01,-0.844472 0.62309,-0.556717 1.35196,-0.57005 1.8556,-0.03395 0.48992,0.521495 0.48212,0.677134 -0.0574,1.146281 -0.43113,0.374865 -0.44097,0.43855 -0.44097,2.854032 v 2.47061 h -0.44097 -0.44097 z m -22.19015,1.544493 c -0.66738,-0.667379 -0.716315,-1.214257 -0.155776,-1.740857 0.527128,-0.495211 0.75284,-0.4835 1.107283,0.05745 l 0.288936,0.440972 h 4.036657 4.03666 v -7.593147 -7.593145 l -0.44097,-0.408679 c -0.5855,-0.542614 -0.55826,-0.707937 0.19308,-1.172296 0.60107,-0.37148 0.66453,-0.37734 1.21965,-0.112623 0.81729,0.389737 0.97074,0.967306 0.37274,1.402922 l -0.46256,0.336945 1.4e-4,7.966886 1.3e-4,7.966885 -4.31879,-0.05009 -4.318798,-0.05009 -0.497182,0.556443 -0.49718,0.556442 z m -6.605339,-0.593949 c -0.577811,-0.473091 -0.601133,-0.665164 -0.132291,-1.08946 0.342898,-0.310318 0.352777,-0.543273 0.352777,-8.317617 v -7.998356 h 4.483205 4.483205 l 0.336943,-0.462553 c 0.43639,-0.599068 0.96396,-0.452543 1.35764,0.377065 0.25847,0.544699 0.26089,0.659682 0.0235,1.118669 -0.38463,0.743791 -0.81731,0.84761 -1.25337,0.300741 l -0.36039,-0.451977 h -4.087751 -4.087753 l -0.0056,7.514983 -0.0056,7.514984 0.567425,0.530055 0.567427,0.530056 -0.49017,0.421628 c -0.607829,0.522832 -1.120927,0.526288 -1.749319,0.01178 z M 71.891643,60.28406 c -0.06117,-0.159406 -0.08274,-0.318308 -0.04793,-0.353116 0.03481,-0.03481 1.862301,-0.06623 4.061097,-0.06983 l 3.997809,-0.0065 v -4.146721 -4.146719 l -0.465505,-0.400412 -0.465506,-0.400411 0.489293,-0.384877 c 0.613145,-0.482301 1.318465,-0.49208 1.819569,-0.02523 0.498108,0.464058 0.486702,0.71901 -0.05493,1.22785 l -0.440972,0.414272 v 4.29078 4.290781 h -4.390851 c -3.910249,0 -4.403024,-0.03172 -4.502068,-0.28983 z m 43.597437,-0.788804 c -0.60121,-0.448551 -0.61269,-0.737452 -0.0441,-1.110006 l 0.44097,-0.288938 v -7.580654 -7.580657 h -3.93801 -3.938 l -0.41427,0.440972 c -0.52576,0.559652 -0.76668,0.554962 -1.22192,-0.02379 -0.48204,-0.612811 -0.46524,-1.320395 0.0427,-1.79755 0.52535,-0.493539 0.72066,-0.483101 1.07484,0.05745 l 0.28894,0.440972 h 4.49385 4.49385 v 7.994948 7.994946 l 0.44097,0.414272 c 0.55388,0.520339 0.55523,0.766507 0.006,1.126242 -0.57939,0.379629 -1.13714,0.351125 -1.726,-0.08821 z m 3.77901,-7.796276 c -0.50876,-0.541544 -0.48891,-1.266303 0.0494,-1.804635 0.54282,-0.542828 0.68993,-0.541706 1.05013,0.008 0.28691,0.43788 0.30746,0.440972 2.9307,0.440972 l 2.64177,9e-6 v 0.440972 0.440972 h -2.54484 c -2.5044,0 -2.55035,0.007 -2.89171,0.440972 -0.43133,0.548353 -0.74332,0.556617 -1.23549,0.03273 z M 85.150187,47.287656 c -0.597532,-0.489237 -0.603627,-0.652004 -0.0441,-1.177655 l 0.440972,-0.414272 v -7.46578 -7.465781 h -4.003193 -4.003195 l -0.483798,0.463507 -0.483797,0.463508 -0.446322,-0.507605 c -0.512417,-0.582775 -0.578181,-1.226908 -0.182885,-1.791273 0.354737,-0.506458 0.625715,-0.494787 1.136526,0.04895 l 0.414272,0.440972 h 4.46717 4.467169 v 7.956134 7.956136 l 0.460337,0.547079 0.460336,0.547079 -0.470172,0.404424 c -0.588453,0.506167 -1.106477,0.504543 -1.72932,-0.0054 z M 79.554915,46.97062 78.952203,46.420128 79.42741,46.073963 79.902617,45.7278 v -4.042234 -4.042231 h -4.145138 -4.14514 V 37.202362 36.76139 h 4.586112 4.586111 v 4.428434 4.428433 l 0.440972,0.346869 c 0.546043,0.429517 0.558917,0.783685 0.0441,1.213164 -0.569596,0.475176 -1.027861,0.419675 -1.714716,-0.20767 z m 41.975735,-4.917563 h 2.20486 c 2.08727,0 2.20486,0.01881 2.20486,0.352778 0,0.336574 -0.11759,0.352777 -2.56013,0.352777 h -2.56012 l -0.48259,0.504074 c -0.28569,0.298422 -0.60949,0.472865 -0.79366,0.427577 h -2.5e-4 c -0.32214,-0.07922 -0.83545,-0.902569 -0.83545,-1.340076 0,-0.368129 0.68892,-1.179075 1.00166,-1.179075 0.14877,0 0.42658,0.198438 0.61736,0.440973 0.19077,0.242534 0.49985,0.440972 0.68684,0.440972 m -0.008,-3.513874 -6.43056,-0.0139 h -6.77817 l -0.35809,0.455237 c -0.45724,0.581281 -0.91248,0.455681 -1.35994,-0.375202 -0.30157,-0.559984 -0.30815,-0.661674 -0.0699,-1.081303 0.46236,-0.814308 0.80188,-0.90381 1.36866,-0.360796 l 0.50114,0.48012 h 6.73224 6.73225 c 0.45104,0.01637 -0.0449,0.272536 0.1864,0 h 0.70555 0.70556 v -3.938004 -3.938002 l -0.44097,-0.414272 c -0.5579,-0.524119 -0.55988,-0.93985 -0.006,-1.30263 0.58888,-0.385851 1.18839,-0.358143 1.7463,0.08071 0.58169,0.457554 0.58836,0.780025 0.0238,1.149946 l -0.44097,0.288936 v 4.47763 4.47763 h -1.14653 -1.14652 M 100.39487,42.846811 100.048,42.405839 H 95.61994 91.191506 V 34.459912 26.51399 l -0.440972,-0.40868 c -0.556955,-0.516167 -0.553247,-0.695278 0.02379,-1.149173 0.589661,-0.463827 1.126652,-0.463827 1.716313,0 0.580503,0.456624 0.586324,0.747915 0.02379,1.190406 l -0.440972,0.346869 v 7.515239 7.515239 h 4.05545 c 3.86442,0 4.065825,-0.01662 4.275765,-0.352778 0.33104,-0.530077 0.95928,-0.447638 1.27745,0.16763 0.34148,0.660349 0.34006,1.063692 -0.005,1.557011 -0.36108,0.515509 -0.85216,0.496752 -1.2814,-0.04895 z m 0.15292,-4.097586 c -0.14109,-0.05554 -0.41397,-0.247656 -0.606384,-0.42692 -0.347826,-0.324049 -0.347126,-0.328775 0.121084,-0.817479 l 0.47093,-0.491547 0.0473,-4.403374 0.0473,-4.403372 8.0197,-0.04592 c 6.85769,-0.03927 8.04084,-0.08368 8.16554,-0.306517 0.0802,-0.143328 0.30199,-0.344168 0.49285,-0.44631 0.28447,-0.152244 0.42616,-0.100309 0.78619,0.288177 0.51438,0.555018 0.55061,0.973077 0.144,1.661411 -0.42525,0.719889 -0.86535,0.771681 -1.30545,0.153625 l -0.36634,-0.514483 -7.52727,0.04598 -7.52728,0.04598 -0.0475,3.938891 -0.0475,3.938889 0.57194,0.534275 0.57195,0.534273 -0.49017,0.421628 c -0.47267,0.406571 -0.98243,0.504714 -1.52079,0.292792 z M 95.424839,21.415557 H 91.37196 87.319082 l -0.294734,0.449822 c -0.409669,0.625232 -0.951156,0.50297 -1.388315,-0.313468 -0.333648,-0.623121 -0.336564,-0.682898 -0.05591,-1.146528 0.49855,-0.823603 0.811116,-0.909925 1.292087,-0.35684 l 0.421823,0.485069 h 8.122349 8.122348 V 18.77379 c 0,-1.691735 -0.0174,-1.771226 -0.44982,-2.054558 -0.62523,-0.409668 -0.50297,-0.951155 0.31347,-1.388315 0.62312,-0.333648 0.68289,-0.336563 1.14653,-0.05591 0.82034,0.496576 0.89294,0.772457 0.35189,1.337192 -0.46893,0.489454 -0.48012,0.55129 -0.48012,2.65225 v 2.151112 h -4.4067 -4.406694 c -0.850816,0.172239 0.599422,0.06641 -0.182447,-4e-6 z m -9.846621,5.026629 -0.346511,-0.440518 H 80.803273 76.37484 V 18.78415 c 0,-3.969635 -0.04818,-7.343073 -0.107066,-7.496528 -0.08076,-0.210451 0.0059,-0.27901 0.352777,-0.27901 h 0.459844 v 6.967361 6.967361 h 4.05545 c 3.864419,0 4.065828,-0.01662 4.275763,-0.352777 0.301712,-0.483118 0.917649,-0.443093 1.261695,0.08199 0.481965,0.735571 0.296042,1.651097 -0.412283,2.030181 -0.271173,0.145128 -0.403387,0.09468 -0.682802,-0.26054 z m 11.161521,-0.167917 c -0.555557,-0.555558 -0.565897,-1.320937 -0.02471,-1.829354 0.525694,-0.493864 0.720641,-0.483132 1.076015,0.05924 l 0.290107,0.442761 9.343369,-0.0067 9.34338,-0.0067 v -3.982583 -3.982522 l -0.44098,-0.346869 c -0.56253,-0.442491 -0.55671,-0.733783 0.0238,-1.190406 0.61817,-0.486254 1.32001,-0.461958 1.88904,0.06539 0.5038,0.46691 0.47571,0.869426 -0.0815,1.167632 -0.31177,0.166852 -0.33203,0.451801 -0.33203,4.669406 v 4.491711 h -9.75884 -9.758834 l -0.414272,0.440972 c -0.513722,0.546832 -0.615027,0.547536 -1.154545,0.008 z m 24.788721,-5.431976 c -0.47003,-0.770908 -0.44227,-1.082737 0.15601,-1.752326 l 0.50685,-0.567267 0.5298,0.580052 c 0.39053,0.427574 0.66301,0.571047 1.03655,0.545794 0.27871,-0.01884 0.88378,-0.02585 1.3446,-0.01557 0.77113,0.0172 0.83785,0.05381 0.83785,0.459663 0,0.432805 -0.0256,0.440973 -1.38037,0.440973 -1.24432,0 -1.42119,0.04346 -1.79463,0.440972 -0.54938,0.584782 -0.8169,0.556164 -1.23666,-0.132292 z m 0.0147,-3.948441 c -0.48243,-0.613302 -0.4617,-1.143904 0.067,-1.714344 0.53372,-0.575894 0.63598,-0.578174 1.15495,-0.02576 0.37344,0.397513 0.55031,0.440972 1.79463,0.440972 1.3548,0 1.38037,0.0082 1.38037,0.440973 0,0.433516 -0.0238,0.440972 -1.40705,0.440972 -1.3062,0 -1.42775,0.0316 -1.69598,0.440972 -0.37256,0.568599 -0.8346,0.560104 -1.29389,-0.02379 z M 91.367895,13.055796 c 0,2.161719 0.01226,2.233221 0.440972,2.570441 0.574122,0.451604 0.55661,0.744067 -0.07133,1.191198 -0.647693,0.461198 -1.081712,0.460992 -1.668775,-7.94e-4 l -3.6e-5,1e-6 c -0.583891,-0.459289 -0.592386,-0.921334 -0.02379,-1.293894 0.431302,-0.2826 0.51336,-0.338332 0.440972,-2.485922 l 0.05561,-2.558498 0.798565,0.048 z m 20.340275,-1.778635 -0.0556,1.833401 c -0.0684,2.255163 -0.004,2.281623 -0.46325,2.615799 -0.38237,0.278539 -0.43095,0.397811 -0.27824,0.683152 0.10176,0.190133 0.38671,0.453642 0.63323,0.585576 0.37911,0.202892 0.54824,0.201813 1.09688,-0.007 0.35676,-0.135784 0.73668,-0.390588 0.84426,-0.56623 0.16095,-0.262777 0.10967,-0.394073 -0.28947,-0.741172 -0.48107,-0.417991 -0.48507,-0.441802 -0.48507,-2.620447 l -0.0582,-2.576389 -0.9733,0.02781 z"
       id="path426"
       sodipodi:nodetypes="ccccsssccccssscccccsssscccccccscsscccsscscccccccsccssccccccssscccssscscccccsssscccccsccccssscccssccsscccccccssscccccccsssccccccccccccccsssccssscsccsssccccssssccccccccscsscccccccccccsssscccsssccccsscccsssssscccccccscccccsssscccssssssccccccccssscccsssssccsscccccssssscccsccsscssssssssccsssssccsssssssccscssssssccccc" /></g></svg>
