<?xml version="1.0" encoding="UTF-8" standalone="no"?>
<!-- Created with Inkscape (http://www.inkscape.org/) -->

<svg
   width="210mm"
   height="297mm"
   viewBox="0 0 210 297"
   version="1.1"
   id="svg5"
   xml:space="preserve"
   inkscape:version="1.2.2 (732a01da63, 2022-12-09)"
   sodipodi:docname="Muster.svg"
   xmlns:inkscape="http://www.inkscape.org/namespaces/inkscape"
   xmlns:sodipodi="http://sodipodi.sourceforge.net/DTD/sodipodi-0.dtd"
   xmlns="http://www.w3.org/2000/svg"
   xmlns:svg="http://www.w3.org/2000/svg"><sodipodi:namedview
     id="namedview7"
     pagecolor="#ffffff"
     bordercolor="#666666"
     borderopacity="1.0"
     inkscape:showpageshadow="2"
     inkscape:pageopacity="0.0"
     inkscape:pagecheckerboard="0"
     inkscape:deskcolor="#d1d1d1"
     inkscape:document-units="mm"
     showgrid="false"
     inkscape:zoom="9.5144351"
     inkscape:cx="512.90486"
     inkscape:cy="272.53326"
     inkscape:window-width="1920"
     inkscape:window-height="974"
     inkscape:window-x="-11"
     inkscape:window-y="-11"
     inkscape:window-maximized="1"
     inkscape:current-layer="layer1" /><defs
     id="defs2" /><g
     inkscape:label="Ebene 1"
     inkscape:groupmode="layer"
     id="layer1"><path
       style="fill:none;fill-opacity:1;stroke:#000000;stroke-width:0.176389;stroke-opacity:1"
       d="m 115.71085,83.736454 c -1.40634,-0.596119 -2.4228,-1.31227 -3.22449,-2.271835 -0.33101,-0.396199 -0.73026,-0.848771 -0.8872,-1.005714 -0.15694,-0.156944 -0.28584,-0.3789 -0.28643,-0.493238 -5.3e-4,-0.114338 -0.13951,-0.446012 -0.30869,-0.737054 -0.27337,-0.470302 -0.30168,-0.991757 -0.25448,-4.687697 0.0501,-3.92552 0.0313,-4.216714 -0.33541,-5.196951 -0.37668,-1.006761 -1.0848,-2.322909 -1.76664,-3.283553 -0.18277,-0.25751 -0.33231,-0.513392 -0.33231,-0.568627 0,-0.05523 0.73422,-0.656616 1.6316,-1.336407 l 1.63159,-1.235981 0.48355,0.569886 c 0.55991,0.659881 2.09862,3.699564 2.50954,4.957554 0.40394,1.23659 0.53563,4.303106 0.28303,6.590554 -0.15525,1.40593 -0.16267,2.135773 -0.0269,2.640198 0.44347,1.646907 2.08578,2.873941 3.84659,2.873941 1.62318,0 2.8761,-0.761914 3.61437,-2.197929 0.3693,-0.718325 0.37457,-1.565921 0.0277,-4.457785 -0.0919,-0.76582 -0.0604,-0.942372 0.18446,-1.036345 0.39784,-0.152666 2.39484,0.87762 3.37727,1.742388 0.74195,0.653086 0.78159,0.735996 0.78159,1.634452 0,2.25192 -0.94704,4.527432 -2.49886,6.004178 -2.17971,2.018675 -5.83388,2.556373 -8.44993,1.495965 z m -9.97305,0.09037 c -0.13565,-0.353485 0.40327,-4.875888 0.60509,-5.077707 0.091,-0.09099 0.3934,-0.139395 0.672,-0.107557 l 0.50656,0.05789 v 1.437327 c 0,0.790531 0.054,1.492714 0.1199,1.560405 0.0659,0.06769 0.46281,-0.111536 0.88194,-0.398286 0.41913,-0.28675 1.01698,-0.652055 1.32855,-0.811787 0.53924,-0.276444 0.57532,-0.27395 0.74966,0.05179 0.62001,2.065637 -2.61817,2.683057 -3.88412,3.389277 -0.64067,0.331302 -0.85836,0.214541 -0.97958,-0.101352 z m 25.50796,-0.804427 c -2.11527,-1.025686 -2.79573,-1.177543 -3.2191,-1.445443 -0.38773,-0.255571 -1.18323,-0.570164 -1.19063,-1.122377 0,-0.495099 0.45505,-1.490546 0.68138,-1.490546 0.0787,0 0.58652,0.3175 1.12844,0.705555 1.46938,1.052202 1.54157,1.010005 1.54157,-0.901066 v -1.606623 l 0.48507,0.119798 c 0.26679,0.06589 0.55295,0.186025 0.6359,0.266967 0.21805,0.212749 0.47649,4.07855 0.32782,4.903542 -0.0971,0.538674 -0.18641,0.669135 -0.39045,0.570193 z m -22.64749,-3.103668 c -0.26973,-0.70289 0.0517,-1.585154 0.60655,-1.665058 0.55406,-0.07979 0.69788,0.02392 0.69788,0.503224 0,0.712997 -1.10052,1.693213 -1.30443,1.161834 z m 9.24193,-0.377997 c -1.88502,-0.663889 -2.20486,-1.156944 -2.20486,-3.398924 0,-2.107999 0.35518,-2.793507 1.67569,-3.234126 0.53358,-0.17804 1.5449,-0.368035 2.24738,-0.422215 l 1.27723,-0.09851 0.27012,0.64649 c 0.14856,0.35557 0.40308,1.425654 0.56558,2.377965 0.26141,1.531927 0.26604,1.808768 0.0401,2.402142 -0.38785,1.018812 -1.27442,1.620573 -2.54837,1.729701 -0.58208,0.04986 -1.17739,0.04872 -1.32292,-0.0025 z m 10.29554,-1.347243 c -0.58498,-0.584978 -0.77054,-0.9049 -0.77054,-1.328453 0,-0.317329 0.10723,-0.599059 0.24866,-0.653333 0.42876,-0.164528 1.28926,0.416042 1.49611,1.0094 0.25369,0.727735 0.25131,1.742927 -0.004,1.742927 -0.10978,0 -0.54635,-0.346744 -0.97014,-0.770541 z m -21.93721,-0.765214 c -2.29294,-0.271265 -3.71733,-0.91863 -5.13039,-2.331699 -2.913356,-2.91335 -3.288672,-7.193678 -0.91733,-10.46176 0.8398,-1.15739 1.70636,-1.857012 3.42648,-2.76642 3.66855,-1.939513 5.33809,-3.589036 6.61678,-6.537458 0.4484,-1.033924 0.50158,-1.087972 0.97692,-0.992903 0.27649,0.0553 1.09642,0.374854 1.82207,0.710124 1.22499,0.565979 1.31936,0.648532 1.31936,1.1541 0,0.648732 -0.80465,2.485743 -1.58668,3.622391 -1.56429,2.273619 -3.543,3.892906 -6.66277,5.452523 -0.89917,0.449509 -1.94625,1.098615 -2.32684,1.442455 -2.50723,2.26513 -0.95757,6.542543 2.49818,6.895569 0.84427,0.08625 1.06906,0.02563 2.33134,-0.628687 0.76833,-0.398274 1.43174,-0.68937 1.47423,-0.646878 0.12516,0.125168 -0.48733,4.575664 -0.65245,4.74078 -1.03341,0.24877 -2.17921,0.457005 -3.1889,0.347855 z M 130.5843,76.06387 c -4.11613,-1.073635 -5.41907,-4.325012 -10.18646,-4.470887 -1.62455,-0.04064 -2.57582,0.01848 -3.26296,0.202793 -0.53344,0.143088 -0.98301,0.246826 -0.99904,0.230526 -0.016,-0.0163 -0.12897,-0.854186 -0.25097,-1.86197 -0.2069,-1.709016 -0.20042,-1.847984 0.0962,-2.064879 0.57698,-0.421899 2.26677,-0.669876 4.59316,-0.674042 1.92069,-0.0034 2.49049,0.06117 3.50888,0.397865 1.8599,0.614918 3.39106,1.454095 5.1903,2.844637 0.90111,0.696428 1.9715,1.417461 2.37863,1.602299 1.39021,0.631152 2.86012,0.321589 4.24447,-0.893886 0.89163,-0.782859 1.17475,-1.395384 1.29213,-2.795441 0.19675,-2.346872 -0.99621,-3.593301 -4.33608,-4.53042 -0.5927,-0.166303 -1.07764,-0.372286 -1.07764,-0.457739 0,-0.310958 4.84137,-2.267587 5.61078,-2.267587 0.701,0 2.32262,1.799807 3.19873,3.550216 1.51928,3.096205 0.34104,6.982017 -1.76023,9.127843 -2.21615,2.084966 -5.35702,2.721366 -8.2399,2.060671 z m -25.16947,-3.62613 c -1.4552,-0.743517 -2.03852,-1.648693 -2.03852,-3.163297 0,-0.738521 0.0907,-0.98482 0.55954,-1.518745 0.72033,-0.820411 2.19416,-1.664282 2.9104,-1.666403 0.69006,-0.002 1.57966,0.962826 2.37255,2.573313 0.71784,1.458034 0.7131,2.046822 -0.0226,2.805861 -1.13686,1.172938 -2.63246,1.5563 -3.78138,0.969271 z m 25.28236,-1.703995 c -1.83109,-1.347974 -2.80282,-2.3414 -2.80282,-2.865407 0,-0.847896 2.1781,-3.544586 2.86295,-3.544586 0.17521,0 1.17316,0.276271 2.21767,0.613937 1.94023,0.627236 2.65543,1.115605 3.20928,2.191444 0.36529,0.709557 0.28972,1.972687 -0.16659,2.78458 -1.36634,2.006708 -3.82177,1.920172 -5.32049,0.820032 z m -5.71324,-3.59444 c -2.11913,-0.696343 -2.11575,-0.693722 -1.86708,-1.447204 0.5663,-1.715886 3.08851,-4.673748 5.21847,-6.119823 1.13865,-0.773052 3.44692,-1.912437 4.49792,-2.220212 2.16642,-0.634418 3.47361,-2.116275 3.6577,-4.146426 0.11023,-1.215604 -0.15756,-2.105744 -0.88155,-2.930326 -1.58338,-1.803371 -3.80053,-1.883951 -6.08152,-0.221025 -0.65175,0.475149 -0.81316,0.891716 -0.93651,0.891716 -0.2829,0 -0.5007,-0.836872 -0.44755,-3.189715 0.0524,-2.320276 0.26291,-2.292798 2.04111,-2.861605 2.60607,-0.833625 5.25758,-0.292293 7.45392,1.521794 2.0565,1.698586 2.94852,3.621471 2.9475,6.353801 -7.1e-4,2.032811 -0.20947,2.906158 -1.00905,4.222423 -1.13724,1.872099 -2.5048,3.123904 -4.03196,3.690679 -4.24929,1.577042 -6.09684,2.919684 -7.90989,5.748217 -0.4384,0.683948 -0.85714,1.240351 -0.93054,1.236449 -0.0734,-0.0039 -0.84782,-0.241834 -1.72094,-0.528743 z m -9.93949,-0.675721 c -0.17628,-0.255275 -0.58555,-0.940388 -0.90949,-1.522471 -0.32395,-0.582083 -0.81342,-1.390135 -1.08772,-1.795671 -0.27429,-0.405533 -0.49872,-0.860299 -0.49872,-1.01059 0,-0.15029 0.50751,-1.167863 1.1278,-2.261273 0.6203,-1.093412 1.23413,-2.292797 1.36408,-2.665298 0.12995,-0.372504 0.38304,-0.755832 0.56244,-0.851841 0.39293,-0.210289 4.6233,-0.541665 5.94226,-0.465472 l 0.94017,0.05431 1.35687,2.365244 1.35686,2.365245 -1.16586,1.819684 c -0.64123,1.000827 -1.40399,2.230776 -1.69503,2.733222 -0.46349,0.80014 -0.6058,0.918972 -1.14653,0.957331 -2.45962,0.174484 -3.76323,0.316368 -4.7213,0.513863 -1.10513,0.227813 -1.10538,0.227771 -1.42583,-0.236285 z M 97.30575,64.048762 c -1.722696,-0.883957 -3.630829,-2.034457 -3.630829,-2.189191 0,-0.266949 3.797816,-1.81891 4.497917,-1.838053 0.640145,-0.0175 0.705556,0.02159 0.705556,0.421678 0,0.36895 -0.200417,0.541804 -1.227088,1.058334 -0.674898,0.339548 -1.257416,0.717883 -1.294484,0.840743 -0.04086,0.135416 0.46451,0.465782 1.283312,0.838922 1.139714,0.519384 1.341926,0.675208 1.294484,0.997523 -0.03092,0.210092 -0.135599,0.407635 -0.232613,0.438986 -0.09701,0.03135 -0.725329,-0.224673 -1.396255,-0.568942 z m 1.131671,-1.737055 c 0,-0.294439 0.762019,-0.633788 1.423193,-0.633788 0.389956,0 0.576796,0.114439 0.727746,0.445757 0.1349,0.296062 0.14409,0.504771 0.0274,0.621491 -0.645255,0.392252 -1.741884,0.171693 -2.178339,-0.43346 z m 41.797739,0.106011 c -0.15573,-0.155724 -0.40897,-0.398569 -0.31368,-0.508867 0.10477,-0.121265 0.60977,-0.560568 1.47967,-0.991006 0.76682,-0.379432 1.30736,-0.752842 1.26884,-0.876528 -0.0369,-0.118515 -0.59804,-0.496908 -1.24697,-0.840874 -1.60609,-0.851323 -1.62006,-0.872594 -1.03416,-1.574413 l 0.49809,-0.596631 1.86212,0.985566 c 2.3076,1.22134 3.33694,1.89459 3.21021,2.099651 -0.0854,0.138192 -1.22342,0.681358 -1.42754,0.681358 -0.39752,0.220996 -0.21532,0.04245 -0.82184,0.329219 l -1.54392,0.717335 c -1.10033,0.511233 -1.31735,0.98037 -1.49558,0.975037 -0.17109,-0.130433 -0.29572,-0.22924 -0.43524,-0.399847 z M 101.42092,61.35684 c -0.35565,-0.15245 -1.16467,-1.104503 -1.897599,-2.233099 -0.842538,-1.297371 -1.163314,-2.547943 -1.154621,-4.501378 0.0062,-1.400309 0.08705,-1.877569 0.49176,-2.904084 1.40886,-3.573432 4.52444,-5.573184 8.30821,-5.332667 1.99004,0.126498 2.50417,0.326298 4.709,1.830021 3.14315,2.143674 4.3809,2.552621 7.60512,2.512692 1.38289,-0.01713 1.96836,0.03904 2.06678,0.198283 0.0755,0.122199 0.18779,0.66639 0.24948,1.209314 0.0617,0.542925 0.1575,1.323096 0.2129,1.733716 0.0935,0.692733 0.0656,0.759934 -0.38635,0.931762 -0.26889,0.102231 -1.78063,0.184437 -3.37484,0.183516 -2.70975,-0.0016 -2.96091,-0.03059 -4.07451,-0.470979 -1.50997,-0.597135 -3.25848,-1.607828 -4.36861,-2.525186 -1.21941,-1.00766 -2.1893,-1.423332 -3.32106,-1.423332 -1.20759,0 -2.05473,0.35557 -2.92823,1.229068 -1.54694,1.546947 -1.62683,4.470217 -0.16307,5.967387 0.29275,0.299425 1.00355,0.727156 1.57956,0.95051 0.57602,0.223354 1.0473,0.500384 1.0473,0.615618 0,0.201022 -3.81983,2.186644 -4.15746,2.161129 -0.0902,-0.0068 -0.28993,-0.06635 -0.44376,-0.132291 z m 36.88039,-0.997772 c 0,-0.874402 1.32628,-1.30151 2.22103,-0.715248 0.57085,0.374036 0.44511,0.493098 -0.90968,0.861344 -1.3525,0.367621 -1.31135,0.372207 -1.31135,-0.146096 z m -12.78396,-1.177737 c -1.04888,-1.246517 -2.49831,-4.760004 -2.74009,-6.642075 -0.0885,-0.689105 -0.0558,-2.118966 0.0858,-3.754485 0.12765,-1.473622 0.16744,-2.913662 0.09,-3.257049 -0.22179,-0.983381 -0.85189,-2.020347 -2.04231,-2.583515 -1.71463,-0.811164 -3.17935,-0.445093 -4.55479,0.765616 -0.97742,0.860358 -1.48625,1.783394 -1.61538,2.930379 -0.18494,1.642651 -0.27072,1.984939 -0.49747,1.984939 -0.24688,0 -3.04229,-2.05374 -3.42482,-2.516159 -0.30961,-0.374279 -0.0318,-1.409368 0.81025,-3.018796 1.22773,-2.346604 2.89141,-3.695454 5.51985,-4.475262 0.95433,-0.283133 1.42399,-0.321654 2.64583,-0.217007 1.70192,0.145764 2.16813,0.302448 3.51401,1.180992 1.18063,0.770667 2.39473,2.147464 3.19495,3.623071 1.06311,1.636612 0.64873,3.718865 0.68561,5.59955 l 0.0882,4.497916 0.56335,1.146528 c 0.30983,0.63059 0.77969,1.510641 1.04412,1.955668 0.28333,0.47683 0.43448,0.929806 0.36804,1.102951 -0.0923,0.240494 -2.94135,2.233048 -3.19294,2.233048 -0.0408,0 -0.28477,-0.25034 -0.54223,-0.55631 z m -19.84297,-1.043938 c -1.07052,-0.4856 -1.71479,-1.268109 -2.21006,-1.751499 -0.50267,-0.490616 -0.47553,-2.377763 -0.009,-3.157218 0.61562,-1.190487 2.33514,-2.118657 3.49517,-1.88665 1.44482,0.288964 2.77565,1.456686 2.77565,2.43547 0,1.22685 -2.23736,4.733524 -3.01248,4.721549 -0.13789,-0.0021 -0.60565,-0.164874 -1.03945,-0.361652 z m 24.29537,-1.898831 c -0.56148,-0.621491 -1.33919,-2.044872 -1.61867,-2.962524 -0.23258,-0.763654 2.09875,-3.137209 3.36102,-3.421898 1.13035,-0.254935 2.14274,-0.01927 2.81798,0.655967 1.02623,1.026234 1.33622,2.199748 0.94914,3.593117 -0.30897,1.112222 -1.6022,1.989776 -3.79158,2.572875 -1.14662,0.305383 -1.01684,0.338436 -1.71789,-0.437537 z m -12.8351,-6.315563 c -1.56938,-0.283085 -1.93382,-0.96929 -1.62387,-3.057567 0.30771,-2.073208 1.42924,-3.150179 3.44287,-3.306064 2.18465,-0.176849 3.36996,2.019071 3.2501,3.773227 -0.10363,1.291041 -0.4582,1.933407 -1.24637,2.258021 -0.59932,0.246836 -3.09433,0.463775 -3.82273,0.332383 z m -8.4268,-4.550427 c -0.4425,-0.562549 -0.66683,-1.659653 -0.39459,-1.929781 0.14726,-0.146117 0.40723,0.02242 0.99908,0.647679 0.75128,0.793688 0.78429,0.868927 0.54183,1.234722 -0.36546,0.551352 -0.73779,0.566741 -1.14632,0.04738 z m -2.80297,-0.319306 c -0.17648,-0.281786 -0.31881,-6.129514 -0.14919,-6.129514 0.19194,0 1.76673,0.802402 3.39525,1.729977 1.73638,0.989006 2.04755,1.502068 1.381,2.276975 l -0.41115,0.47799 -1.10675,-0.743165 c -0.60871,-0.408741 -1.26335,-0.743166 -1.45474,-0.743166 -0.32686,0 -0.34071,0.0834 -0.22816,1.373618 0.0659,0.75549 0.0677,1.509552 0.004,1.675694 -0.13807,0.359796 -1.21737,0.421369 -1.43017,0.08159 z m 22.10502,-0.807639 c -0.42106,-0.465267 -0.3807,-0.576789 0.52435,-1.448691 l 0.81627,-0.786379 -0.11182,0.870487 c -0.10921,0.850279 -0.50201,1.687152 -0.79189,1.687152 -0.0797,0 -0.27635,-0.145156 -0.43691,-0.322569 z m 2.29323,-0.502468 c -0.0679,-0.06785 -0.0706,-0.822785 -0.006,-1.677635 0.14205,-1.881805 0.0615,-1.921883 -1.50117,-0.747177 -0.59052,0.443902 -1.20513,0.781246 -1.3658,0.749653 -0.16067,-0.03159 -0.4542,-0.274738 -0.6523,-0.540322 l -0.36021,-0.482879 0.41484,-0.441581 c 0.36397,-0.387431 4.32138,-2.695124 5.17004,-3.014823 0.29037,-0.109382 0.30727,-0.0213 0.20985,1.093265 -0.29363,3.359024 -0.46054,4.39483 -0.75374,4.677478 -0.36119,0.348194 -0.98427,0.555266 -1.15551,0.384021 z"
       id="path1872"
       sodipodi:nodetypes="csscsccssscssscsscssscccssscssssccscccssscssscsssscssscsscscccssssccssssssssssssssccsccsssscssssssssccccssccsssscssssccssssssssssscsssssssssssssscccsssssssssssssssscsscccssssscssccsccsscsssssscscssssssssssssssscsssssssssscccsssssscscsscccsssssssssccssssssscssscssscccsscsssccssscsscsc" /></g></svg>
